<svg preserveAspectRatio="none" overflow="visible" style="display: block;" width="24" height="24" viewBox="0 0 24 24" fill="none" xmlns="http://www.w3.org/2000/svg">
<g id="large/admin-outline">
<g id="Shape">
<path d="M16.3157 9.93673C17.1429 9.93673 17.8134 9.26679 17.8134 8.44039C17.8134 7.61398 17.1429 6.94405 16.3157 6.94405C15.4885 6.94405 14.8179 7.61398 14.8179 8.44039C14.8179 9.26679 15.4885 9.93673 16.3157 9.93673Z" fill="#1E2939"/>
<path fill-rule="evenodd" clip-rule="evenodd" d="M19.4191 4.49745C17.1537 2.23417 13.4807 2.23417 11.2153 4.49745C9.56774 6.14348 9.06853 8.611 9.93697 10.7624L3.51179 17.1816C2.8294 17.8633 2.8294 18.9686 3.51179 19.6504L3.95047 20.0887C4.33937 20.4772 4.88869 20.6601 5.43315 20.5824L8.10417 20.2012C8.47844 20.1478 8.82528 19.9745 9.09262 19.7074L14.0492 14.7555L14.908 14.97C16.853 15.4558 18.9106 14.8865 20.3283 13.4701C22.5572 11.2432 22.5573 7.63269 20.3283 5.40578L19.4191 4.49745ZM12.2744 5.55553C13.9549 3.87659 16.6795 3.87659 18.36 5.55553L19.2692 6.46385C20.9133 8.1064 20.9133 10.7695 19.2692 12.412C18.2235 13.4567 16.7059 13.8767 15.2713 13.5184L14.0406 13.211C13.7609 13.1411 13.465 13.223 13.2611 13.4267L11.3232 15.3628L10.355 14.3955L9.29595 15.4536L10.2642 16.4209L9.32624 17.3579L8.35803 16.3906L7.29897 17.4487L8.26718 18.416L8.03356 18.6494C7.99537 18.6875 7.94582 18.7123 7.89235 18.7199L5.22134 19.1011C5.14356 19.1122 5.06509 19.0861 5.00953 19.0306L4.57085 18.5923C4.47337 18.4949 4.47337 18.337 4.57085 18.2396L11.3269 11.4899C11.5595 11.2575 11.627 10.9071 11.4975 10.605L11.3619 10.289C10.6688 8.67322 11.0301 6.79859 12.2744 5.55553Z" fill="#1E2939"/>
</g>
</g>
</svg>
