<svg preserveAspectRatio="none" overflow="visible" style="display: block;" width="18" height="16" viewBox="0 0 18 16" fill="none" xmlns="http://www.w3.org/2000/svg">
<g id="Union">
<path id="Vector" fill-rule="evenodd" clip-rule="evenodd" d="M7 0C5.89543 0 5 0.89543 5 2V3H2C0.89543 3 0 3.89543 0 5V14C0 15.1046 0.895431 16 2 16H16C17.1046 16 18 15.1046 18 14V5C18 3.89543 17.1046 3 16 3H13V2C13 0.89543 12.1046 0 11 0H7ZM11 3V2H7V3H11ZM1.27886 7.29396C1.39265 6.89568 1.80776 6.66506 2.20604 6.77886L8.6566 8.62187C8.88104 8.686 9.11896 8.686 9.3434 8.62187L15.794 6.77886C16.1922 6.66506 16.6073 6.89568 16.7211 7.29396C16.8349 7.69224 16.6043 8.10735 16.206 8.22114L9.75548 10.0642C9.26171 10.2052 8.73829 10.2052 8.24452 10.0642L1.79396 8.22114C1.39568 8.10735 1.16506 7.69224 1.27886 7.29396Z" fill="#030712"/>
</g>
</svg>
